<svg width="36" height="36" viewBox="0 0 36 36" fill="none" xmlns="http://www.w3.org/2000/svg">
<path d="M35.1875 18C35.1875 18.547 34.9702 19.0716 34.5834 19.4584C34.1966 19.8452 33.672 20.0625 33.125 20.0625H20.0625V33.125C20.0625 33.672 19.8452 34.1966 19.4584 34.5834C19.0716 34.9702 18.547 35.1875 18 35.1875C17.453 35.1875 16.9284 34.9702 16.5416 34.5834C16.1548 34.1966 15.9375 33.672 15.9375 33.125V20.0625H2.875C2.32799 20.0625 1.80339 19.8452 1.41659 19.4584C1.0298 19.0716 0.8125 18.547 0.8125 18C0.8125 17.453 1.0298 16.9284 1.41659 16.5416C1.80339 16.1548 2.32799 15.9375 2.875 15.9375H15.9375V2.875C15.9375 2.32799 16.1548 1.80339 16.5416 1.41659C16.9284 1.0298 17.453 0.8125 18 0.8125C18.547 0.8125 19.0716 1.0298 19.4584 1.41659C19.8452 1.80339 20.0625 2.32799 20.0625 2.875V15.9375H33.125C33.672 15.9375 34.1966 16.1548 34.5834 16.5416C34.9702 16.9284 35.1875 17.453 35.1875 18Z" fill="white"/>
</svg>
