<svg width="32" height="33" viewBox="0 0 32 33" fill="none" xmlns="http://www.w3.org/2000/svg">
<rect x="0.5" y="1.07501" width="31" height="31" rx="15.5" stroke="white"/>
<path d="M23.501 7.77502H8.49942C8.15484 7.77502 7.82438 7.91191 7.58073 8.15556C7.33708 8.39921 7.2002 8.72967 7.2002 9.07425V24.0758C7.2002 24.4204 7.33708 24.7508 7.58073 24.9945C7.82438 25.2381 8.15484 25.375 8.49942 25.375H23.501C23.8455 25.375 24.176 25.2381 24.4197 24.9945C24.6633 24.7508 24.8002 24.4204 24.8002 24.0758V9.07425C24.8002 8.72967 24.6633 8.39921 24.4197 8.15556C24.176 7.91191 23.8455 7.77502 23.501 7.77502ZM12.446 22.768H9.79986V14.3628H12.446V22.768ZM11.1211 13.198C10.8209 13.1963 10.528 13.1058 10.2793 12.9378C10.0305 12.7697 9.83714 12.5318 9.72351 12.254C9.60987 11.9762 9.58107 11.6709 9.64075 11.3768C9.70043 11.0826 9.84592 10.8127 10.0588 10.6011C10.2718 10.3896 10.5426 10.2458 10.8371 10.188C11.1317 10.1302 11.4367 10.161 11.7138 10.2764C11.9909 10.3918 12.2276 10.5867 12.394 10.8366C12.5604 11.0864 12.6491 11.3799 12.6489 11.68C12.6517 11.881 12.614 12.0805 12.5381 12.2665C12.4622 12.4526 12.3496 12.6216 12.2071 12.7632C12.0645 12.9049 11.8949 13.0164 11.7083 13.0911C11.5217 13.1658 11.322 13.2021 11.1211 13.198ZM22.1993 22.7754H19.5544V18.1835C19.5544 16.8292 18.9788 16.4112 18.2356 16.4112C17.451 16.4112 16.681 17.0028 16.681 18.2177V22.7754H14.0349V14.3689H16.5795V15.5337H16.6138C16.8692 15.0167 17.7639 14.133 19.1291 14.133C20.6055 14.133 22.2005 15.0094 22.2005 17.576L22.1993 22.7754Z" fill="white"/>
</svg>
