<svg width="35" height="36" viewBox="0 0 35 36" fill="none" xmlns="http://www.w3.org/2000/svg">
<rect x="0.5" y="0.5" width="33.4" height="34.15" rx="16.7" stroke="white"/>
<path d="M12.8712 7.95001C12.8712 7.7511 12.7922 7.56033 12.6515 7.41968C12.5109 7.27903 12.3201 7.20001 12.1212 7.20001C11.9223 7.20001 11.7315 7.27903 11.5909 7.41968C11.4502 7.56033 11.3712 7.7511 11.3712 7.95001V9.53001C9.9312 9.64501 8.9872 9.92701 8.2932 10.622C7.5982 11.316 7.3162 12.261 7.2002 13.7H27.0422C26.9262 12.26 26.6442 11.316 25.9492 10.622C25.2552 9.92701 24.3102 9.64501 22.8712 9.52901V7.95001C22.8712 7.7511 22.7922 7.56033 22.6515 7.41968C22.5109 7.27903 22.3201 7.20001 22.1212 7.20001C21.9223 7.20001 21.7315 7.27903 21.5909 7.41968C21.4502 7.56033 21.3712 7.7511 21.3712 7.95001V9.46301C20.7062 9.45001 19.9602 9.45001 19.1212 9.45001H15.1212C14.2822 9.45001 13.5362 9.45001 12.8712 9.46301V7.95001Z" fill="white"/>
<path fill-rule="evenodd" clip-rule="evenodd" d="M7.2002 17.95C7.2002 17.111 7.2002 16.365 7.2132 15.7H27.1872C27.2002 16.365 27.2002 17.111 27.2002 17.95V19.95C27.2002 23.721 27.2002 25.607 26.0282 26.778C24.8572 27.95 22.9712 27.95 19.2002 27.95H15.2002C11.4292 27.95 9.5432 27.95 8.3722 26.778C7.2002 25.607 7.2002 23.721 7.2002 19.95V17.95ZM22.2002 19.95C22.4654 19.95 22.7198 19.8447 22.9073 19.6571C23.0948 19.4696 23.2002 19.2152 23.2002 18.95C23.2002 18.6848 23.0948 18.4304 22.9073 18.2429C22.7198 18.0554 22.4654 17.95 22.2002 17.95C21.935 17.95 21.6806 18.0554 21.4931 18.2429C21.3056 18.4304 21.2002 18.6848 21.2002 18.95C21.2002 19.2152 21.3056 19.4696 21.4931 19.6571C21.6806 19.8447 21.935 19.95 22.2002 19.95ZM22.2002 23.95C22.4654 23.95 22.7198 23.8447 22.9073 23.6571C23.0948 23.4696 23.2002 23.2152 23.2002 22.95C23.2002 22.6848 23.0948 22.4304 22.9073 22.2429C22.7198 22.0554 22.4654 21.95 22.2002 21.95C21.935 21.95 21.6806 22.0554 21.4931 22.2429C21.3056 22.4304 21.2002 22.6848 21.2002 22.95C21.2002 23.2152 21.3056 23.4696 21.4931 23.6571C21.6806 23.8447 21.935 23.95 22.2002 23.95ZM18.2002 18.95C18.2002 19.2152 18.0948 19.4696 17.9073 19.6571C17.7198 19.8447 17.4654 19.95 17.2002 19.95C16.935 19.95 16.6806 19.8447 16.4931 19.6571C16.3056 19.4696 16.2002 19.2152 16.2002 18.95C16.2002 18.6848 16.3056 18.4304 16.4931 18.2429C16.6806 18.0554 16.935 17.95 17.2002 17.95C17.4654 17.95 17.7198 18.0554 17.9073 18.2429C18.0948 18.4304 18.2002 18.6848 18.2002 18.95ZM18.2002 22.95C18.2002 23.2152 18.0948 23.4696 17.9073 23.6571C17.7198 23.8447 17.4654 23.95 17.2002 23.95C16.935 23.95 16.6806 23.8447 16.4931 23.6571C16.3056 23.4696 16.2002 23.2152 16.2002 22.95C16.2002 22.6848 16.3056 22.4304 16.4931 22.2429C16.6806 22.0554 16.935 21.95 17.2002 21.95C17.4654 21.95 17.7198 22.0554 17.9073 22.2429C18.0948 22.4304 18.2002 22.6848 18.2002 22.95ZM12.2002 19.95C12.4654 19.95 12.7198 19.8447 12.9073 19.6571C13.0948 19.4696 13.2002 19.2152 13.2002 18.95C13.2002 18.6848 13.0948 18.4304 12.9073 18.2429C12.7198 18.0554 12.4654 17.95 12.2002 17.95C11.935 17.95 11.6806 18.0554 11.4931 18.2429C11.3056 18.4304 11.2002 18.6848 11.2002 18.95C11.2002 19.2152 11.3056 19.4696 11.4931 19.6571C11.6806 19.8447 11.935 19.95 12.2002 19.95ZM12.2002 23.95C12.4654 23.95 12.7198 23.8447 12.9073 23.6571C13.0948 23.4696 13.2002 23.2152 13.2002 22.95C13.2002 22.6848 13.0948 22.4304 12.9073 22.2429C12.7198 22.0554 12.4654 21.95 12.2002 21.95C11.935 21.95 11.6806 22.0554 11.4931 22.2429C11.3056 22.4304 11.2002 22.6848 11.2002 22.95C11.2002 23.2152 11.3056 23.4696 11.4931 23.6571C11.6806 23.8447 11.935 23.95 12.2002 23.95Z" fill="white"/>
</svg>
