<svg width="45" height="45" viewBox="0 0 45 45" fill="none" xmlns="http://www.w3.org/2000/svg">
<path d="M26.1857 7.18701L26.1868 7.18766C26.9381 7.6338 27.6278 8.04162 28.134 8.3401C28.3871 8.48936 28.5942 8.61118 28.7401 8.69674C28.7415 8.69755 28.7428 8.69836 28.7442 8.69917C28.8754 8.62703 29.0556 8.52534 29.2747 8.39996C29.7469 8.12977 30.391 7.75446 31.0932 7.34028C31.0933 7.34026 31.0933 7.34023 31.0933 7.34021L32.933 6.2545L30.9269 5.06349C30.9266 5.06331 30.9263 5.06313 30.926 5.06295C30.1751 4.62154 29.4821 4.21664 28.9707 3.92119C28.7146 3.77325 28.5055 3.65359 28.3578 3.57073C28.3505 3.5666 28.3433 3.56258 28.3363 3.55867C28.2336 3.61366 28.0981 3.68887 27.9355 3.7811C27.5565 3.9961 27.0437 4.29601 26.4877 4.62834C25.5788 5.17588 24.6446 5.73049 24.1805 6.00313L26.1857 7.18701Z" stroke="white"/>
<path d="M21.0858 7.82999L21.0858 7.83L21.0837 7.83125C20.8531 7.96738 20.6332 8.09969 20.4446 8.2153C20.4617 8.22629 20.4791 8.2375 20.497 8.24895C20.9402 8.53278 21.6046 8.93735 22.4559 9.44148L22.4567 9.44198C23.1976 9.88269 23.8832 10.2826 24.3883 10.5719C24.6411 10.7167 24.847 10.8329 24.9915 10.9123C24.9959 10.9148 25.0002 10.9171 25.0045 10.9195C25.0621 10.8885 25.1302 10.8512 25.2068 10.8085C25.4521 10.6718 25.7714 10.4879 26.0875 10.302C26.2759 10.1912 26.4619 10.0804 26.6294 9.97917C26.581 9.95049 26.5307 9.92063 26.4785 9.8897C25.985 9.59732 25.3298 9.21061 24.6707 8.82238C24.0115 8.43415 23.3486 8.0446 22.8397 7.74656C22.5852 7.59751 22.3696 7.47156 22.2123 7.38017C22.1514 7.3448 22.0996 7.3148 22.0578 7.29074C22.0471 7.2952 22.0352 7.30036 22.022 7.30633C21.8526 7.38272 21.5739 7.53873 21.0858 7.82999ZM22.1331 7.26416C22.1332 7.26408 22.1317 7.26435 22.1284 7.2652C22.1314 7.26467 22.1331 7.26424 22.1331 7.26416Z" stroke="white"/>
<path d="M27.0107 12.2883L27.0105 12.2884L18.9895 17.0412L18.9648 21.2214L18.9648 21.2224L18.9489 25.2531C19.6925 25.3864 20.2265 25.7304 20.9472 26.4276L20.9277 23.027C20.9277 23.0268 20.9277 23.0266 20.9277 23.0264C20.9102 20.7737 20.9034 19.6043 20.9225 18.9789C20.9317 18.6738 20.9477 18.4587 20.9834 18.3013C21.003 18.2149 21.0319 18.1292 21.0792 18.0467C21.1271 17.9631 21.1806 17.9068 21.2104 17.8763L21.2187 17.8678L21.2274 17.8596C21.2661 17.8235 21.3157 17.7903 21.3333 17.7785C21.3344 17.7777 21.3354 17.7771 21.3363 17.7765C21.3664 17.7562 21.4048 17.7313 21.4495 17.7027C21.5394 17.6453 21.664 17.5675 21.8181 17.4724C22.1269 17.2819 22.5607 17.018 23.0871 16.7004C24.1403 16.0648 25.5681 15.2118 27.1165 14.2958C27.9197 13.8207 28.7564 13.3252 29.578 12.8388C31.9183 11.4532 34.135 10.1407 35.1007 9.57844C35.7438 9.19695 36.3272 8.84284 36.7489 8.58128C36.763 8.5725 36.777 8.56383 36.7908 8.55528C36.593 8.43237 36.3664 8.29368 36.1382 8.15566C35.8118 7.95825 35.485 7.76397 35.2371 7.62082C35.1718 7.58308 35.1128 7.54944 35.0615 7.52055C34.9543 7.58333 34.8116 7.6672 34.6366 7.77037C34.214 8.01937 33.6047 8.37962 32.8536 8.82431C31.3515 9.71363 29.2834 10.94 27.0107 12.2883Z" stroke="white"/>
<path d="M15.5123 11.1316L15.5118 11.1319C14.4019 11.7911 13.7051 12.2111 13.2851 12.4802C13.8024 12.788 14.6107 13.2675 15.4931 13.7887L15.4931 13.7887L15.4943 13.7894C16.6918 14.501 17.3364 14.8762 17.7025 15.0618C17.7955 15.109 17.8608 15.1387 17.9053 15.1572C18.2869 14.9272 19.4366 14.2468 20.6991 13.5003L20.7002 13.4996C21.4514 13.058 22.1406 12.6505 22.646 12.3491C22.7093 12.3113 22.7697 12.2753 22.8269 12.2411C22.7761 12.2089 22.7227 12.1753 22.6671 12.1404C22.1669 11.8264 21.4913 11.412 20.809 10.999C20.1267 10.5861 19.44 10.1761 18.9177 9.87089C18.6561 9.71803 18.4383 9.59301 18.2837 9.50743C18.2798 9.50525 18.2759 9.50309 18.2721 9.50097C18.2694 9.5025 18.2668 9.50404 18.2641 9.50559C18.1112 9.59474 17.8907 9.724 17.619 9.88389C17.0757 10.2036 16.3292 10.6451 15.5123 11.1316Z" stroke="white"/>
<path d="M36.6256 11.1938L36.6235 11.1951C35.9562 11.5913 35.3441 11.9582 34.8959 12.2291C34.8691 12.2453 34.8429 12.2611 34.8173 12.2766C34.8507 12.2974 34.8853 12.3188 34.9209 12.3408C35.401 12.6374 36.0707 13.0415 36.8161 13.4822L36.8166 13.4825L39.2685 14.9361L41.4132 13.6547L41.4132 13.6547L41.4153 13.6535C42.0055 13.3047 42.5646 12.9733 43.0115 12.7085C43.1537 12.6242 43.2845 12.5466 43.4014 12.4774C43.0212 12.2338 42.4117 11.8651 41.4671 11.3033C40.7311 10.8674 40.0488 10.4726 39.5441 10.1886C39.2912 10.0463 39.0857 9.93336 38.9414 9.85738C38.937 9.85507 38.9327 9.8528 38.9284 9.85058C38.9263 9.85172 38.9242 9.85287 38.9221 9.85404C38.7887 9.92731 38.6004 10.0337 38.3703 10.166C37.9107 10.4303 37.2915 10.7939 36.6256 11.1938ZM43.8545 12.7901C44.0745 12.6599 44.2146 12.5773 44.2457 12.5599C44.2896 12.5358 44.275 12.4897 44.1524 12.3893C44.1511 12.3882 44.1498 12.3872 44.1485 12.3861C44.0902 12.3387 44.0082 12.2793 43.8975 12.2047C43.8764 12.2267 43.8553 12.2533 43.8361 12.285C43.7734 12.3887 43.7589 12.502 43.7737 12.598C43.7866 12.6819 43.8192 12.7384 43.8337 12.7612C43.8418 12.7739 43.8492 12.7836 43.8545 12.7901ZM43.8812 12.1937C43.5164 11.9491 42.8525 11.5455 41.7224 10.8734C40.2454 9.99861 38.9794 9.28615 38.9178 9.29517C38.8563 9.30419 37.7045 9.96254 36.3682 10.7652L43.8812 12.1937ZM43.3 13.1187C43.5153 12.9911 43.7028 12.8799 43.8531 12.7909L34.3398 12.5677C34.8181 12.8691 35.6321 13.363 36.5616 13.9126L39.2695 15.5179L41.6697 14.084C42.2783 13.7243 42.85 13.3854 43.3 13.1187ZM39.1002 9.75971C39.1007 9.75952 39.1007 9.75948 39.1004 9.75962C39.1004 9.75964 39.1003 9.75967 39.1002 9.75971Z" stroke="white"/>
<path d="M31.6339 14.1401C31.414 14.2742 31.2073 14.4025 31.0302 14.5148C31.1617 14.5971 31.3097 14.6868 31.4667 14.7781L31.4667 14.7781L31.4688 14.7794C32.0675 15.1315 33.2727 15.8444 34.1525 16.3679L34.1525 16.3679L35.4892 17.1633L36.4549 16.5931C36.4551 16.593 36.4553 16.5929 36.4555 16.5928C36.6803 16.4593 36.8946 16.3312 37.081 16.2189C37.0337 16.1889 36.9842 16.1576 36.9326 16.1251C36.4458 15.8186 35.7876 15.4148 35.1219 15.0126C34.4563 14.6105 33.7859 14.2117 33.2747 13.915C33.0186 13.7664 32.8054 13.6452 32.6537 13.5624C32.6458 13.5581 32.6381 13.5539 32.6306 13.5499C32.5862 13.5749 32.5353 13.604 32.4787 13.6367C32.2565 13.765 31.9567 13.9433 31.6339 14.1401Z" stroke="white"/>
<path d="M12.3667 14.4705C12.3158 14.4405 12.2668 14.4117 12.2197 14.3841C12.2143 14.6301 12.2092 14.9277 12.2047 15.2703C12.1904 16.3496 12.1816 17.8669 12.1816 19.6061V25.2026H14.495H16.8084V21.2565V17.0958L14.32 15.6267L14.3189 15.626C13.5672 15.1796 12.8756 14.7697 12.3667 14.4705Z" stroke="white"/>
<path d="M44.4817 16.3165C44.4766 15.5117 44.4705 14.8513 44.4637 14.3775C44.0564 14.6148 43.4908 14.9469 42.8035 15.3519C41.3502 16.2083 39.3549 17.3894 37.1659 18.688L29.4532 23.2687L29.4277 31.2817L29.4277 31.2822L29.4112 39.0866H30.9675H32.8968L38.7573 35.6211L38.7575 35.621L44.4993 32.2221V23.0107C44.4993 20.405 44.4927 18.0343 44.4817 16.3165Z" stroke="white"/>
<path d="M26.1168 17.4076L26.1168 17.4076L26.114 17.4092C25.311 17.8819 24.5813 18.3179 24.0542 18.6387C23.9894 18.6782 23.9278 18.7158 23.8696 18.7515C23.9232 18.7838 23.9794 18.8177 24.0381 18.853C24.5397 19.1545 25.2105 19.5511 25.8844 19.9457C26.5583 20.3403 27.2335 20.7319 27.7441 21.0233C27.9997 21.1693 28.2121 21.289 28.3618 21.3712C28.3623 21.3714 28.3627 21.3717 28.3632 21.3719C28.3684 21.3689 28.3736 21.3659 28.379 21.3628C28.5329 21.2739 28.7523 21.1458 29.0218 20.9876C29.5604 20.6714 30.2959 20.2367 31.0999 19.7591L31.1005 19.7587C32.2072 19.1033 32.9095 18.6814 33.3318 18.4099C33.2428 18.3558 33.1451 18.2967 33.0402 18.2336C32.5552 17.9418 31.9223 17.5669 31.2891 17.1954C30.6559 16.824 30.0241 16.4569 29.5413 16.1808C29.2996 16.0426 29.097 15.9281 28.9508 15.8476C28.935 15.8389 28.92 15.8306 28.9057 15.8229C28.8922 15.8296 28.8779 15.8367 28.8627 15.8444C28.7045 15.9243 28.4803 16.0447 28.2044 16.1979C27.654 16.5036 26.9136 16.9315 26.1168 17.4076ZM33.7763 18.0964C33.7762 18.0964 33.7746 18.0979 33.772 18.1008C33.7751 18.0978 33.7764 18.0964 33.7763 18.0964ZM28.7456 15.7384C28.7352 15.7336 28.7369 15.7349 28.7468 15.739C28.7463 15.7388 28.7459 15.7386 28.7456 15.7384Z" stroke="white"/>
<path d="M24.4465 30.0259L24.448 30.0275C24.9137 30.5234 25.3156 30.9721 25.6196 31.3325C25.9074 31.6737 26.1471 31.9808 26.2444 32.1738L26.2444 32.1738L26.2461 32.1773C26.9502 33.6009 26.6845 35.16 25.5715 36.3325L25.5715 36.3325L25.5704 36.3337C25.3162 36.5997 24.9798 36.8508 24.6595 37.0364C24.5532 37.098 24.4447 37.1547 24.3375 37.2034C24.5329 37.4067 24.7682 37.6443 25.0095 37.8826C25.314 38.1832 25.6242 38.481 25.8712 38.7083C25.9952 38.8225 26.0998 38.9156 26.1783 38.9816C26.2019 39.0015 26.2217 39.0176 26.2378 39.0304C26.2469 39.032 26.2573 39.0337 26.2692 39.0356C26.3241 39.0442 26.3946 39.0529 26.4768 39.0607C26.6413 39.0762 26.8388 39.0866 27.0288 39.0866H27.2673V31.2987V23.294L26.3075 22.7191C26.3072 22.7189 26.3069 22.7187 26.3065 22.7186C26.0243 22.5509 25.6476 22.3289 25.2499 22.0944C24.7166 21.78 24.1455 21.4434 23.7141 21.1861C23.7137 21.1859 23.7134 21.1857 23.7131 21.1855L23.0801 20.8115V24.3545V28.5833L24.4465 30.0259ZM26.2802 39.0621C26.2802 39.062 26.2789 39.0611 26.2764 39.0596C26.279 39.0614 26.2803 39.0622 26.2802 39.0621Z" stroke="white"/>
<path d="M0.660234 24.1643L0.660274 24.1644L0.654582 24.1695L0.528957 24.2828L0.503296 32.2584C0.503296 32.2585 0.503296 32.2586 0.503295 32.2587C0.498901 34.5082 0.498902 36.586 0.503295 38.1203C0.505492 38.8876 0.508785 39.5181 0.513164 39.9659C0.515356 40.19 0.517806 40.3669 0.52049 40.4917C0.521838 40.5544 0.523202 40.6018 0.524527 40.6347C0.524873 40.6433 0.52519 40.65 0.525451 40.655C0.525557 40.6554 0.525667 40.6558 0.525782 40.6562C0.527796 40.6635 0.530827 40.6731 0.535147 40.6847C0.543925 40.7085 0.556323 40.7363 0.571859 40.7654C0.605631 40.8286 0.639814 40.8714 0.656787 40.8877L0.663016 40.8937L0.669035 40.8998L0.750445 40.9833H3.12442C3.92602 40.9833 4.58375 40.9743 5.05195 40.9588C5.2868 40.951 5.46895 40.9417 5.59578 40.9316C5.63303 40.9287 5.66328 40.9258 5.68719 40.9232C5.71127 40.8335 5.74329 40.628 5.76591 40.1648C5.81598 39.1398 5.81595 37.1171 5.81588 32.9985C5.81587 32.8417 5.81587 32.6819 5.81587 32.519C5.81587 29.4165 5.80927 27.3406 5.79283 26.0195C5.7846 25.3583 5.77395 24.8907 5.76069 24.5797C5.75403 24.4234 5.74695 24.313 5.73992 24.2398C5.73819 24.2219 5.73662 24.2078 5.73527 24.1969C5.72216 24.1703 5.71391 24.1565 5.70976 24.1503C5.6965 24.1434 5.64809 24.1224 5.52346 24.1024C5.16567 24.0451 4.49681 24.0366 3.11562 24.0366H0.79765L0.660234 24.1643ZM5.75641 24.2422L5.7544 24.2378C5.75506 24.2392 5.75572 24.2407 5.75641 24.2422ZM5.70651 24.1458C5.70651 24.1459 5.70692 24.1465 5.70773 24.1473C5.7069 24.1462 5.7065 24.1458 5.70651 24.1458Z" stroke="white"/>
<path d="M19.8859 32.4465C20.5766 33.1819 21.4049 34.0676 21.7194 34.4177C22.0579 34.7822 22.2796 34.9721 22.4673 35.0774C22.635 35.1714 22.7987 35.2108 23.0558 35.2108C23.3348 35.2108 23.4665 35.1899 23.5633 35.154C23.6561 35.1196 23.7599 35.0554 23.9488 34.8822L23.9488 34.8822L23.9537 34.8778C24.4678 34.4189 24.5957 33.7117 24.3289 33.1851C24.3236 33.1781 24.3085 33.1576 24.2773 33.1189C24.2337 33.0651 24.1731 32.9932 24.0957 32.904C23.9415 32.7262 23.7294 32.4894 23.4737 32.2097C22.9627 31.6508 22.2843 30.928 21.5615 30.1776L21.5609 30.1769C20.4465 29.0158 19.7824 28.3349 19.3595 27.9329C18.9128 27.5085 18.8027 27.4665 18.783 27.4607C18.7833 27.4608 18.7828 27.4607 18.7812 27.4603C18.7791 27.4597 18.7753 27.4588 18.7695 27.4576C18.7595 27.4556 18.7456 27.4531 18.7272 27.4503C18.6901 27.4446 18.6406 27.4388 18.577 27.4331C18.4494 27.4217 18.2784 27.4123 18.0589 27.4051C17.6205 27.3908 17.0089 27.3862 16.203 27.3907C14.899 27.4087 12.4026 27.4268 10.6538 27.4358C10.6535 27.4358 10.6533 27.4358 10.653 27.4358L7.95898 27.4586V32.419V37.3752H8.15354C9.02888 37.3752 9.79161 37.506 10.3619 37.7876L10.3619 37.7876L10.3687 37.791C10.4371 37.8261 10.5221 37.8883 10.5855 37.9355C10.6637 37.9935 10.7635 38.0706 10.8809 38.1629C11.1161 38.3481 11.431 38.6024 11.8024 38.9065C12.5457 39.5151 13.5215 40.3285 14.5517 41.2001C15.5793 42.0695 16.5422 42.8749 17.2672 43.4703C17.63 43.7682 17.9312 44.0119 18.1504 44.1842C18.2604 44.2707 18.3467 44.3368 18.4084 44.382C18.4239 44.3934 18.437 44.4027 18.4478 44.4103C18.4553 44.4115 18.4644 44.4129 18.4753 44.4143C18.5393 44.4227 18.6382 44.4315 18.7865 44.4397C19.0821 44.456 19.5408 44.4683 20.2422 44.4773C21.6428 44.4953 23.9823 44.4998 27.8562 44.4998C28.3301 44.4998 28.7807 44.4998 29.2092 44.4999C33.4049 44.5004 35.4772 44.5007 36.5598 44.4452C37.1691 44.414 37.395 44.3665 37.4962 44.3261C37.5446 44.3068 37.5472 44.3042 37.6129 44.2375C37.6395 44.2106 37.6765 44.1731 37.731 44.1197C37.9184 43.9353 37.9946 43.8199 38.0405 43.69C38.0926 43.5427 38.1218 43.3315 38.1262 42.9228C38.1262 42.5798 38.1181 42.4259 38.0963 42.3163C38.0787 42.2282 38.0498 42.1544 37.9549 41.9835C37.9112 41.9098 37.8368 41.8112 37.7494 41.715C37.6614 41.6181 37.5858 41.5516 37.545 41.5232L37.3389 41.3953L31.7646 41.3513L26.0499 41.3062L25.9345 41.3053L25.8312 41.2539L25.2509 40.9653L25.2481 40.9639C24.8695 40.7726 24.5594 40.5239 23.5991 39.54C22.6294 38.5464 20.9519 36.7532 17.8291 33.4103C17.8289 33.4101 17.8287 33.4099 17.8285 33.4097L17.0826 32.6175L16.7541 32.2687L17.0885 31.9257L17.493 31.5109L17.493 31.5108L17.4968 31.5069L17.9013 31.1011L18.2643 30.7368L18.6182 31.11L19.8842 32.4447L19.8859 32.4465ZM18.4838 44.4345C18.4838 44.4344 18.4822 44.4334 18.4793 44.4317C18.4824 44.4338 18.4839 44.4346 18.4838 44.4345Z" stroke="white"/>
</svg>
