<svg width="32" height="33" viewBox="0 0 32 33" fill="none" xmlns="http://www.w3.org/2000/svg">
<rect x="0.5" y="1.07501" width="31" height="31" rx="15.5" stroke="white"/>
<path fill-rule="evenodd" clip-rule="evenodd" d="M7.24236 16.4061C11.9067 14.374 15.017 13.0342 16.5732 12.3869C21.0166 10.5388 21.9399 10.2177 22.5417 10.2071C22.674 10.2048 22.97 10.2376 23.1617 10.3932C23.3235 10.5245 23.3681 10.7019 23.3894 10.8265C23.4107 10.951 23.4372 11.2347 23.4161 11.4563C23.1753 13.9863 22.1335 20.1259 21.6034 22.9595C21.3791 24.1585 20.9375 24.5605 20.51 24.5999C19.5808 24.6854 18.8753 23.9858 17.9753 23.3959C16.5671 22.4728 15.7716 21.8982 14.4047 20.9974C12.825 19.9564 13.849 19.3843 14.7493 18.4492C14.9849 18.2045 19.0787 14.4808 19.158 14.143C19.1679 14.1008 19.1771 13.9433 19.0835 13.8602C18.99 13.777 18.8519 13.8054 18.7523 13.8281C18.611 13.8601 16.3614 15.347 12.0034 18.2888C11.3648 18.7273 10.7864 18.9409 10.2682 18.9297C9.69694 18.9174 8.59802 18.6067 7.78109 18.3412C6.77909 18.0155 5.98272 17.8433 6.05206 17.2901C6.08818 17.002 6.48495 16.7073 7.24236 16.4061Z" fill="white"/>
</svg>
