<svg width="210" height="31" viewBox="0 0 210 31" fill="none" xmlns="http://www.w3.org/2000/svg">
<path d="M143.732 8.53165V13.0221H130.752V8.53165H143.732ZM133.698 3.36768H139.676V23.4623C139.676 24.0142 139.76 24.4445 139.929 24.7533C140.097 25.0526 140.331 25.2631 140.63 25.3847C140.939 25.5063 141.295 25.5671 141.697 25.5671C141.978 25.5671 142.258 25.5438 142.539 25.497C142.82 25.4408 143.035 25.3987 143.184 25.3707L144.125 29.819C143.825 29.9125 143.404 30.0201 142.862 30.1417C142.319 30.2727 141.66 30.3522 140.883 30.3803C139.442 30.4364 138.179 30.2446 137.094 29.805C136.018 29.3653 135.181 28.6824 134.582 27.7562C133.984 26.8301 133.689 25.6607 133.698 24.2481V3.36768Z" fill="white"/>
<path d="M128.615 8.53178V13.0222H115.312V8.53178H128.615ZM118.357 30.0857V6.97417C118.357 5.41188 118.661 4.11621 119.269 3.08716C119.887 2.0581 120.729 1.28632 121.795 0.771789C122.862 0.257263 124.073 0 125.43 0C126.346 0 127.184 0.0701632 127.941 0.21049C128.709 0.350815 129.279 0.477107 129.653 0.589368L128.587 5.07978C128.353 5.00494 128.063 4.93477 127.717 4.86929C127.38 4.8038 127.034 4.77106 126.678 4.77106C125.799 4.77106 125.186 4.97687 124.84 5.38849C124.494 5.79076 124.321 6.35674 124.321 7.08643V30.0857H118.357Z" fill="white"/>
<path d="M102.529 30.5066C100.349 30.5066 98.4639 30.0435 96.8735 29.1173C95.2925 28.1818 94.0717 26.8815 93.211 25.2163C92.3504 23.5418 91.92 21.6006 91.92 19.3928C91.92 17.1663 92.3504 15.2205 93.211 13.5553C94.0717 11.8807 95.2925 10.5804 96.8735 9.65423C98.4639 8.71873 100.349 8.25098 102.529 8.25098C104.708 8.25098 106.589 8.71873 108.17 9.65423C109.76 10.5804 110.986 11.8807 111.846 13.5553C112.707 15.2205 113.137 17.1663 113.137 19.3928C113.137 21.6006 112.707 23.5418 111.846 25.2163C110.986 26.8815 109.76 28.1818 108.17 29.1173C106.589 30.0435 104.708 30.5066 102.529 30.5066ZM102.557 25.8758C103.548 25.8758 104.376 25.5952 105.04 25.0339C105.705 24.4632 106.205 23.6868 106.542 22.7045C106.888 21.7222 107.061 20.6043 107.061 19.3507C107.061 18.0971 106.888 16.9792 106.542 15.9969C106.205 15.0147 105.705 14.2382 105.04 13.6675C104.376 13.0969 103.548 12.8115 102.557 12.8115C101.556 12.8115 100.714 13.0969 100.031 13.6675C99.3573 14.2382 98.8474 15.0147 98.5013 15.9969C98.1645 16.9792 97.9961 18.0971 97.9961 19.3507C97.9961 20.6043 98.1645 21.7222 98.5013 22.7045C98.8474 23.6868 99.3573 24.4632 100.031 25.0339C100.714 25.5952 101.556 25.8758 102.557 25.8758Z" fill="white"/>
<path d="M88.5348 14.6779L83.0621 15.0147C82.9685 14.5469 82.7674 14.1259 82.4587 13.7517C82.15 13.3682 81.743 13.0641 81.2378 12.8396C80.742 12.6057 80.148 12.4888 79.4557 12.4888C78.5296 12.4888 77.7484 12.6853 77.1123 13.0782C76.4761 13.4617 76.1581 13.9762 76.1581 14.6217C76.1581 15.1363 76.3639 15.5713 76.7755 15.9268C77.1871 16.2823 77.8934 16.5676 78.8944 16.7828L82.7954 17.5686C84.891 17.9989 86.4533 18.6912 87.4823 19.6454C88.5114 20.5996 89.0259 21.8532 89.0259 23.4061C89.0259 24.8187 88.6096 26.0583 87.777 27.1247C86.9538 28.1912 85.8218 29.0238 84.3811 29.6225C82.9498 30.2119 81.2986 30.5066 79.4276 30.5066C76.5744 30.5066 74.3011 29.9125 72.6078 28.7244C70.9239 27.527 69.937 25.8992 69.647 23.8411L75.5266 23.5324C75.7043 24.4024 76.1347 25.0666 76.8176 25.525C77.5005 25.9741 78.3752 26.1986 79.4417 26.1986C80.4894 26.1986 81.3314 25.9974 81.9675 25.5952C82.613 25.1836 82.9405 24.655 82.9498 24.0095C82.9405 23.4669 82.7113 23.0226 82.2622 22.6764C81.8132 22.3209 81.1209 22.0496 80.1854 21.8625L76.4527 21.1188C74.3479 20.6978 72.7809 19.9681 71.7519 18.9297C70.7322 17.8913 70.2223 16.5676 70.2223 14.9585C70.2223 13.574 70.5965 12.3812 71.3449 11.3802C72.1027 10.3792 73.1645 9.60745 74.5303 9.06486C75.9055 8.52227 77.5145 8.25098 79.3575 8.25098C82.0798 8.25098 84.2221 8.82631 85.7844 9.97698C87.356 11.1276 88.2728 12.6946 88.5348 14.6779Z" fill="white"/>
<path d="M56.1055 30.5066C53.9258 30.5066 52.0408 30.0435 50.4504 29.1173C48.8694 28.1818 47.6486 26.8815 46.7879 25.2163C45.9273 23.5418 45.4969 21.6006 45.4969 19.3928C45.4969 17.1663 45.9273 15.2205 46.7879 13.5553C47.6486 11.8807 48.8694 10.5804 50.4504 9.65423C52.0408 8.71873 53.9258 8.25098 56.1055 8.25098C58.2853 8.25098 60.1656 8.71873 61.7466 9.65423C63.337 10.5804 64.5625 11.8807 65.4231 13.5553C66.2838 15.2205 66.7141 17.1663 66.7141 19.3928C66.7141 21.6006 66.2838 23.5418 65.4231 25.2163C64.5625 26.8815 63.337 28.1818 61.7466 29.1173C60.1656 30.0435 58.2853 30.5066 56.1055 30.5066ZM56.1336 25.8758C57.1252 25.8758 57.9532 25.5952 58.6174 25.0339C59.2816 24.4632 59.7821 23.6868 60.1188 22.7045C60.465 21.7222 60.638 20.6043 60.638 19.3507C60.638 18.0971 60.465 16.9792 60.1188 15.9969C59.7821 15.0147 59.2816 14.2382 58.6174 13.6675C57.9532 13.0969 57.1252 12.8115 56.1336 12.8115C55.1326 12.8115 54.2907 13.0969 53.6078 13.6675C52.9342 14.2382 52.4243 15.0147 52.0782 15.9969C51.7414 16.9792 51.573 18.0971 51.573 19.3507C51.573 20.6043 51.7414 21.7222 52.0782 22.7045C52.4243 23.6868 52.9342 24.4632 53.6078 25.0339C54.2907 25.5952 55.1326 25.8758 56.1336 25.8758Z" fill="white"/>
<path d="M44.0024 8.53174L36.4669 30.0857H29.7313L22.1958 8.53174H28.5104L32.9868 23.9535H33.2113L37.6737 8.53174H44.0024Z" fill="white"/>
<path d="M10.6928 30.5066C8.47565 30.5066 6.56722 30.0575 4.96752 29.1594C3.37716 28.252 2.15165 26.9704 1.29099 25.3145C0.430331 23.6493 0 21.6801 0 19.4068C0 17.1897 0.430331 15.2439 1.29099 13.5693C2.15165 11.8948 3.36313 10.5897 4.92542 9.65423C6.49706 8.71873 8.34 8.25098 10.4542 8.25098C11.8762 8.25098 13.1999 8.48017 14.4254 8.93857C15.6603 9.38761 16.7361 10.0658 17.6529 10.9733C18.5791 11.8807 19.2994 13.022 19.8139 14.3972C20.3285 15.7631 20.5857 17.3628 20.5857 19.1963V20.8382H2.38553V17.1336H14.9587C14.9587 16.2729 14.7716 15.5105 14.3974 14.8463C14.0232 14.1821 13.504 13.6629 12.8398 13.2887C12.1849 12.9051 11.4225 12.7133 10.5525 12.7133C9.64503 12.7133 8.84049 12.9238 8.13887 13.3448C7.4466 13.7564 6.90401 14.313 6.51109 15.0147C6.11818 15.7069 5.91705 16.4787 5.9077 17.33V20.8522C5.9077 21.9187 6.10415 22.8401 6.49706 23.6166C6.89933 24.3931 7.46531 24.9918 8.195 25.4128C8.92469 25.8337 9.79003 26.0442 10.791 26.0442C11.4552 26.0442 12.0633 25.9507 12.6152 25.7636C13.1672 25.5765 13.6396 25.2958 14.0325 24.9216C14.4254 24.5474 14.7248 24.089 14.9306 23.5464L20.4594 23.9113C20.1788 25.2397 19.6034 26.3997 18.7334 27.3913C17.8728 28.3736 16.7595 29.1407 15.3937 29.6927C14.0372 30.2353 12.4702 30.5066 10.6928 30.5066Z" fill="white"/>
<path d="M155.755 6.63216C154.534 5.41118 154.534 3.43159 155.755 2.21062C156.976 0.989641 158.956 0.98964 160.177 2.21061L170.32 12.3536C171.541 13.5746 171.541 15.5542 170.32 16.7751C169.099 17.9961 167.119 17.9961 165.898 16.7751L155.755 6.63216Z" fill="#166D96"/>
<path d="M160.297 27.0922C159.09 28.2987 157.134 28.2987 155.927 27.0922L-nan -nanL155.927 27.0922C154.721 25.8856 154.721 23.9294 155.927 22.7228L167.232 11.4184C167.369 11.2807 167.482 11.12 167.564 10.9435C167.685 10.6848 167.738 10.3994 167.717 10.1146L167.689 9.72505L170.492 12.5276C171.698 13.7342 171.698 15.6904 170.492 16.897L160.297 27.0922Z" fill="#2095D4"/>
</svg>
