<svg width="61" height="31" viewBox="0 0 61 31" fill="none" xmlns="http://www.w3.org/2000/svg">
<path d="M32.3776 29.8621L59.9233 4.46269C60.3831 4.03889 60.6397 3.47584 60.6397 2.89033C60.6397 2.30481 60.3831 1.74177 59.9233 1.31797L59.8922 1.29062C59.6692 1.08446 59.4009 0.920294 59.1035 0.808115C58.8061 0.695936 58.4858 0.638086 58.1621 0.638086C57.8385 0.638086 57.5182 0.695936 57.2208 0.808115C56.9233 0.920293 56.655 1.08446 56.4321 1.29062L30.4946 25.2088L4.56746 1.29061C4.34453 1.08445 4.0762 0.920289 3.77879 0.80811C3.48137 0.695931 3.16109 0.638081 2.83743 0.638081C2.51376 0.638081 2.19348 0.695931 1.89607 0.80811C1.59865 0.920289 1.33032 1.08445 1.1074 1.29061L1.07627 1.31796C0.616423 1.74176 0.359896 2.30481 0.359896 2.89032C0.359896 3.47584 0.616423 4.03889 1.07627 4.46269L28.6219 29.8621C28.8641 30.0854 29.1555 30.2633 29.4783 30.3848C29.8011 30.5063 30.1486 30.5689 30.4998 30.5689C30.851 30.5689 31.1985 30.5063 31.5213 30.3848C31.8441 30.2633 32.1354 30.0854 32.3776 29.8621Z" fill="white"/>
</svg>
